<svg xmlns="http://www.w3.org/2000/svg" xmlns:xlink="http://www.w3.org/1999/xlink" width="240" zoomAndPan="magnify" viewBox="0 0 180 44.999999" height="60" preserveAspectRatio="xMidYMid meet" version="1.0"><defs><g/></defs><g fill="#ffffff" fill-opacity="1"><g transform="translate(5.355534, 32.446808)"><g><path d="M 25.699219 -20.089844 L 25.699219 -20.234375 L 19.539062 -20.234375 L 13.066406 -4.886719 L 5.375 -20.234375 L 0.289062 -20.234375 C 1.53125 -19.308594 2.082031 -18.441406 2.628906 -17.34375 L 2.628906 -4.539062 C 2.628906 -0.605469 1.617188 -0.289062 0.433594 -0.144531 L 0.433594 0 L 5.40625 0 L 5.40625 -0.144531 C 4.21875 -0.289062 3.207031 -1.183594 3.207031 -5.117188 L 3.207031 -16.1875 L 11.476562 0.316406 L 19.539062 -18.730469 L 19.539062 -1.648438 C 19.539062 -0.605469 18.527344 -0.289062 17.34375 -0.144531 L 17.34375 0 L 25.699219 0 L 25.699219 -0.144531 C 24.511719 -0.289062 23.5 -0.605469 23.5 -1.648438 L 23.5 -18.585938 C 23.5 -19.628906 24.511719 -19.945312 25.699219 -20.089844 Z M 25.699219 -20.089844 "/></g></g></g><g fill="#ffffff" fill-opacity="1"><g transform="translate(31.473113, 32.446808)"><g><path d="M 15.925781 -2.371094 L 15.925781 -13.125 C 14.078125 -13.847656 12.082031 -14.191406 10.234375 -14.191406 C 4.105469 -14.191406 1.15625 -10.609375 1.15625 -6.386719 C 1.15625 -2.371094 3.902344 0.203125 8.121094 0.203125 C 9.480469 0.203125 10.636719 -0.0859375 11.5625 -0.578125 C 11.5625 -0.550781 11.535156 -0.550781 11.535156 -0.550781 L 17.054688 0.347656 L 17.054688 0.261719 C 16.1875 -0.316406 15.925781 -0.808594 15.925781 -2.371094 Z M 4.828125 -8.066406 C 4.828125 -11.417969 6.214844 -13.644531 8.933594 -13.644531 C 10.320312 -13.644531 11.359375 -13.066406 12.257812 -12.082031 L 12.257812 -2.746094 C 12.257812 -2.3125 12.226562 -1.996094 12.199219 -1.707031 C 11.621094 -1.070312 10.898438 -0.722656 9.945312 -0.722656 C 7.023438 -0.722656 4.828125 -3.875 4.828125 -8.066406 Z M 4.828125 -8.066406 "/></g></g></g><g fill="#ffffff" fill-opacity="1"><g transform="translate(49.674523, 32.446808)"><g><path d="M 10.378906 -14.164062 C 8.324219 -14.164062 6.765625 -12.949219 6.097656 -11.101562 L 5.722656 -11.101562 L 5.722656 -12.023438 L 5.867188 -14.164062 L 0.289062 -13.730469 L 0.289062 -13.613281 C 0.894531 -13.558594 1.648438 -13.355469 2.050781 -13.09375 L 2.050781 -1.996094 L 1.90625 0 L 6.851562 0 C 5.984375 -0.578125 5.722656 -1.128906 5.722656 -2.6875 L 5.722656 -8.410156 C 5.953125 -10.40625 6.675781 -12.140625 8.007812 -12.140625 C 9.078125 -12.140625 9.625 -10.753906 8.960938 -9.019531 L 9.078125 -9.019531 L 11.96875 -13.816406 C 11.417969 -14.078125 10.957031 -14.164062 10.378906 -14.164062 Z M 10.378906 -14.164062 "/></g></g></g><g fill="#ffffff" fill-opacity="1"><g transform="translate(62.068824, 32.446808)"><g><path d="M 16.160156 -0.925781 L 16.160156 -12.023438 L 16.332031 -14.019531 L 10.925781 -14.019531 L 10.925781 -13.960938 C 12.226562 -13.382812 12.488281 -12.835938 12.488281 -11.273438 L 12.488281 -3.0625 C 11.332031 -2.140625 9.945312 -1.15625 8.09375 -1.15625 C 6.820312 -1.15625 5.664062 -1.878906 5.664062 -5.117188 L 5.664062 -12.023438 L 5.839844 -14.019531 L 0.433594 -14.019531 L 0.433594 -13.960938 C 1.734375 -13.382812 1.996094 -12.835938 1.996094 -11.273438 L 1.996094 -5.058594 C 1.996094 -0.695312 4.453125 0.203125 6.1875 0.203125 C 8.84375 0.203125 11.128906 -1.300781 12.488281 -2.371094 L 12.488281 0.144531 L 17.777344 -0.289062 L 17.777344 -0.40625 C 17.316406 -0.460938 16.5625 -0.664062 16.160156 -0.925781 Z M 16.160156 -0.925781 "/></g></g></g><g fill="#ffffff" fill-opacity="1"><g transform="translate(80.270234, 32.446808)"><g><path d="M 11.011719 -22.230469 C 6.820312 -22.230469 2.628906 -19.425781 2.628906 -14.714844 L 2.628906 -14.019531 L 0.578125 -14.019531 L 0.433594 -13.324219 C 1.792969 -13.324219 2.628906 -13.382812 2.628906 -12.054688 L 2.628906 -1.792969 L 2.167969 0 L 8.238281 0 L 8.238281 -0.117188 C 6.503906 -0.433594 6.300781 -1.242188 6.300781 -2.804688 L 6.300781 -13.324219 L 10.433594 -13.324219 L 10.578125 -14.019531 L 6.300781 -14.019531 L 6.300781 -16.679688 C 6.300781 -19.222656 6.851562 -21.417969 8.988281 -21.417969 C 11.042969 -21.417969 13.125 -19.367188 13.875 -18.472656 L 16.59375 -20.753906 C 13.960938 -22.054688 12.140625 -22.230469 11.011719 -22.230469 Z M 11.011719 -22.230469 "/></g></g></g><g fill="#ffffff" fill-opacity="1"><g transform="translate(91.393317, 32.446808)"><g/></g></g><g fill="#ffffff" fill-opacity="1"><g transform="translate(97.171538, 32.446808)"><g><path d="M 19.078125 -20.117188 L 19.078125 -20.234375 L 2.515625 -20.234375 L 1.589844 -14.078125 L 1.707031 -14.078125 C 3.496094 -18.585938 5.203125 -19.773438 10.667969 -19.773438 L 13.527344 -19.773438 L 4.191406 -4.394531 C 2.515625 -1.617188 1.472656 -0.375 0.578125 0 L 18.039062 0 L 18.960938 -6.097656 L 18.847656 -6.097656 C 17.113281 -1.617188 15.347656 -0.460938 9.480469 -0.460938 L 6.242188 -0.460938 L 16.042969 -16.648438 C 17.574219 -19.195312 18.210938 -19.945312 19.078125 -20.117188 Z M 19.078125 -20.117188 "/></g></g></g><g fill="#ffffff" fill-opacity="1"><g transform="translate(116.817511, 32.446808)"><g><path d="M 3.757812 -16.304688 C 4.941406 -16.304688 5.867188 -17.226562 5.867188 -18.441406 C 5.867188 -19.628906 4.941406 -20.550781 3.757812 -20.550781 C 2.574219 -20.550781 1.648438 -19.628906 1.648438 -18.441406 C 1.648438 -17.226562 2.574219 -16.304688 3.757812 -16.304688 Z M 1.878906 0 L 6.851562 0 C 5.984375 -0.578125 5.722656 -1.128906 5.722656 -2.6875 L 5.722656 -12.023438 L 5.867188 -14.164062 L 0.289062 -13.730469 L 0.289062 -13.613281 C 0.894531 -13.558594 1.648438 -13.355469 2.050781 -13.09375 L 2.050781 -1.996094 Z M 1.878906 0 "/></g></g></g><g fill="#ffffff" fill-opacity="1"><g transform="translate(124.531446, 32.446808)"><g><path d="M 6.765625 0.203125 C 10.347656 0.203125 12.660156 -1.734375 12.660156 -4.363281 C 12.660156 -6.792969 10.695312 -8.265625 7.398438 -8.84375 C 5.433594 -9.191406 3.84375 -9.855469 3.84375 -11.679688 C 3.84375 -12.457031 4.164062 -13.757812 6.070312 -13.757812 C 8.179688 -13.757812 10.40625 -12.082031 10.234375 -9.769531 L 10.289062 -9.769531 L 12.257812 -12.488281 C 11.1875 -13.46875 9.394531 -14.191406 7.109375 -14.191406 C 3.730469 -14.191406 1.300781 -12.632812 1.300781 -10.03125 C 1.300781 -8.410156 2.195312 -5.953125 6.621094 -5.375 C 9.078125 -5.03125 10.378906 -4.21875 10.378906 -2.457031 C 10.378906 -1.097656 9.597656 -0.289062 7.863281 -0.289062 C 5.464844 -0.289062 2.804688 -1.9375 2.890625 -4.453125 L 2.832031 -4.453125 L 1.011719 -1.503906 C 2.167969 -0.550781 4.539062 0.203125 6.765625 0.203125 Z M 6.765625 0.203125 "/></g></g></g><g fill="#ffffff" fill-opacity="1"><g transform="translate(138.196948, 32.446808)"><g><path d="M 15.925781 -2.371094 L 15.925781 -13.125 C 14.078125 -13.847656 12.082031 -14.191406 10.234375 -14.191406 C 4.105469 -14.191406 1.15625 -10.609375 1.15625 -6.386719 C 1.15625 -2.371094 3.902344 0.203125 8.121094 0.203125 C 9.480469 0.203125 10.636719 -0.0859375 11.5625 -0.578125 C 11.5625 -0.550781 11.535156 -0.550781 11.535156 -0.550781 L 17.054688 0.347656 L 17.054688 0.261719 C 16.1875 -0.316406 15.925781 -0.808594 15.925781 -2.371094 Z M 4.828125 -8.066406 C 4.828125 -11.417969 6.214844 -13.644531 8.933594 -13.644531 C 10.320312 -13.644531 11.359375 -13.066406 12.257812 -12.082031 L 12.257812 -2.746094 C 12.257812 -2.3125 12.226562 -1.996094 12.199219 -1.707031 C 11.621094 -1.070312 10.898438 -0.722656 9.945312 -0.722656 C 7.023438 -0.722656 4.828125 -3.875 4.828125 -8.066406 Z M 4.828125 -8.066406 "/></g></g></g><g fill="#ffffff" fill-opacity="1"><g transform="translate(156.398357, 32.446808)"><g><path d="M 12.371094 0 L 17.34375 0 C 16.476562 -0.578125 16.214844 -1.128906 16.214844 -2.6875 L 16.214844 -8.933594 C 16.214844 -13.296875 13.757812 -14.191406 11.9375 -14.191406 C 9.335938 -14.191406 7.054688 -12.515625 5.722656 -11.589844 L 5.722656 -12.023438 L 5.867188 -14.164062 L 0.289062 -13.730469 L 0.289062 -13.613281 C 0.894531 -13.558594 1.648438 -13.355469 2.050781 -13.09375 L 2.050781 -1.996094 L 1.878906 0 L 6.851562 0 C 5.984375 -0.578125 5.722656 -1.128906 5.722656 -2.6875 L 5.722656 -10.898438 C 6.820312 -11.707031 8.238281 -12.863281 10.03125 -12.863281 C 11.390625 -12.863281 12.546875 -12.113281 12.546875 -8.875 L 12.546875 -1.996094 Z M 12.371094 0 "/></g></g></g></svg>