<svg width="87" height="22" viewBox="0 0 87 22" fill="none" xmlns="http://www.w3.org/2000/svg">
<path d="M6.45235 17.2386C5.13489 17.2386 4.01584 17.0005 3.09521 16.5243C2.17457 16.0481 1.34918 15.3497 0.619019 14.429L2.47616 12.5719C2.93648 13.2386 3.4841 13.7624 4.11902 14.1433C4.75394 14.5084 5.56346 14.6909 6.54759 14.6909C7.46822 14.6909 8.19838 14.5005 8.73807 14.1195C9.29362 13.7386 9.5714 13.2148 9.5714 12.5481C9.5714 11.9925 9.42854 11.5401 9.14283 11.1909C8.85711 10.8417 8.47616 10.556 7.99997 10.3338C7.53965 10.0957 7.02378 9.88935 6.45235 9.71475C5.8968 9.52427 5.3333 9.31793 4.76188 9.0957C4.20632 8.85761 3.69045 8.56396 3.21426 8.21475C2.75394 7.86554 2.38092 7.41316 2.09521 6.85761C1.80949 6.30205 1.66664 5.5957 1.66664 4.73856C1.66664 3.75443 1.90473 2.9211 2.38092 2.23856C2.87299 1.54015 3.53172 1.0084 4.35711 0.643322C5.18251 0.278243 6.10315 0.0957031 7.11902 0.0957031C8.21426 0.0957031 9.19045 0.309989 10.0476 0.73856C10.9206 1.16713 11.627 1.71475 12.1666 2.38142L10.3095 4.23856C9.8333 3.69888 9.3333 3.30205 8.80949 3.04808C8.30156 2.77824 7.71426 2.64332 7.04759 2.64332C6.22219 2.64332 5.5714 2.80999 5.09521 3.14332C4.63489 3.47666 4.40473 3.94491 4.40473 4.54808C4.40473 5.05602 4.54759 5.46872 4.8333 5.78618C5.11902 6.08777 5.49203 6.34967 5.95235 6.57189C6.42854 6.77824 6.94442 6.97666 7.49997 7.16713C8.0714 7.35761 8.63489 7.57189 9.19045 7.80999C9.76188 8.04808 10.2777 8.35761 10.7381 8.73856C11.2143 9.10364 11.5952 9.57983 11.8809 10.1671C12.1666 10.7544 12.3095 11.4925 12.3095 12.3814C12.3095 13.8735 11.7777 15.056 10.7143 15.929C9.66664 16.8021 8.246 17.2386 6.45235 17.2386Z" fill="#B2E24B"/>
<path d="M18.8287 17.2386C17.7175 17.2386 16.7096 16.9767 15.8048 16.4528C14.9001 15.9132 14.1779 15.1909 13.6382 14.2862C13.1144 13.3814 12.8525 12.3735 12.8525 11.2624C12.8525 10.1513 13.1144 9.15126 13.6382 8.26237C14.1779 7.37348 14.9001 6.66713 15.8048 6.14332C16.7096 5.60364 17.7175 5.3338 18.8287 5.3338C19.9556 5.3338 20.9715 5.5957 21.8763 6.11951C22.781 6.64332 23.4953 7.35761 24.0191 8.26237C24.5588 9.15126 24.8287 10.1513 24.8287 11.2624C24.8287 12.3735 24.5588 13.3814 24.0191 14.2862C23.4953 15.1909 22.781 15.9132 21.8763 16.4528C20.9715 16.9767 19.9556 17.2386 18.8287 17.2386ZM18.8287 14.7148C19.4794 14.7148 20.0509 14.5719 20.5429 14.2862C21.0509 13.9846 21.4398 13.5719 21.7096 13.0481C21.9953 12.5243 22.1382 11.929 22.1382 11.2624C22.1382 10.5957 21.9953 10.0084 21.7096 9.50047C21.4239 8.99253 21.035 8.5957 20.5429 8.30999C20.0509 8.0084 19.4794 7.85761 18.8287 7.85761C18.1937 7.85761 17.6223 8.0084 17.1144 8.30999C16.6223 8.5957 16.2334 8.99253 15.9477 9.50047C15.6779 10.0084 15.5429 10.5957 15.5429 11.2624C15.5429 11.929 15.6779 12.5243 15.9477 13.0481C16.2334 13.5719 16.6223 13.9846 17.1144 14.2862C17.6223 14.5719 18.1937 14.7148 18.8287 14.7148Z" fill="#B2E24B"/>
<path d="M31.2924 17.2386C30.1813 17.2386 29.1733 16.9767 28.2686 16.4528C27.3638 15.9132 26.6416 15.1909 26.1019 14.2862C25.5781 13.3814 25.3162 12.3735 25.3162 11.2624C25.3162 10.1513 25.5781 9.15126 26.1019 8.26237C26.6416 7.37348 27.3638 6.66713 28.2686 6.14332C29.1733 5.60364 30.1813 5.3338 31.2924 5.3338C32.4194 5.3338 33.4352 5.5957 34.34 6.11951C35.2448 6.64332 35.959 7.35761 36.4829 8.26237C37.0225 9.15126 37.2924 10.1513 37.2924 11.2624C37.2924 12.3735 37.0225 13.3814 36.4829 14.2862C35.959 15.1909 35.2448 15.9132 34.34 16.4528C33.4352 16.9767 32.4194 17.2386 31.2924 17.2386ZM31.2924 14.7148C31.9432 14.7148 32.5146 14.5719 33.0067 14.2862C33.5146 13.9846 33.9035 13.5719 34.1733 13.0481C34.459 12.5243 34.6019 11.929 34.6019 11.2624C34.6019 10.5957 34.459 10.0084 34.1733 9.50047C33.8876 8.99253 33.4987 8.5957 33.0067 8.30999C32.5146 8.0084 31.9432 7.85761 31.2924 7.85761C30.6575 7.85761 30.086 8.0084 29.5781 8.30999C29.086 8.5957 28.6971 8.99253 28.4114 9.50047C28.1416 10.0084 28.0067 10.5957 28.0067 11.2624C28.0067 11.929 28.1416 12.5243 28.4114 13.0481C28.6971 13.5719 29.086 13.9846 29.5781 14.2862C30.086 14.5719 30.6575 14.7148 31.2924 14.7148Z" fill="#B2E24B"/>
<path d="M46.3513 17.0005V10.4052C46.3513 9.64332 46.1053 9.01634 45.6133 8.52427C45.1371 8.03221 44.518 7.78618 43.7561 7.78618C43.2482 7.78618 42.7958 7.89729 42.399 8.11951C42.0021 8.34173 41.6926 8.65126 41.4704 9.04808C41.2482 9.44491 41.1371 9.89729 41.1371 10.4052L40.1133 9.8338C40.1133 8.96078 40.3037 8.19094 40.6847 7.52427C41.0656 6.84173 41.5894 6.30999 42.2561 5.92904C42.9386 5.53221 43.7006 5.3338 44.5418 5.3338C45.399 5.3338 46.1609 5.55602 46.8275 6.00046C47.4942 6.42904 48.018 6.99253 48.399 7.69094C48.7799 8.37348 48.9704 9.08777 48.9704 9.8338V17.0005H46.3513ZM38.518 17.0005V5.57189H41.1371V17.0005H38.518Z" fill="#B2E24B"/>
<path d="M55.4652 17.2386C54.4334 17.2386 53.4969 16.9767 52.6557 16.4528C51.8303 15.929 51.1715 15.2227 50.6795 14.3338C50.2033 13.429 49.9652 12.4211 49.9652 11.31C49.9652 10.183 50.2033 9.17507 50.6795 8.28618C51.1715 7.38142 51.8303 6.66713 52.6557 6.14332C53.4969 5.60364 54.4334 5.3338 55.4652 5.3338C56.3382 5.3338 57.108 5.52428 57.7747 5.90523C58.4572 6.27031 58.9969 6.77824 59.3938 7.42904C59.7906 8.07983 59.989 8.81792 59.989 9.64332V12.929C59.989 13.7544 59.7906 14.4925 59.3938 15.1433C59.0128 15.7941 58.4811 16.31 57.7985 16.6909C57.116 17.056 56.3382 17.2386 55.4652 17.2386ZM55.8938 14.7624C56.862 14.7624 57.6398 14.437 58.2271 13.7862C58.8303 13.1354 59.1319 12.3021 59.1319 11.2862C59.1319 10.6036 58.9969 10.0005 58.7271 9.47666C58.4572 8.95285 58.0763 8.54808 57.5842 8.26237C57.108 7.96078 56.5446 7.80999 55.8938 7.80999C55.2588 7.80999 54.6953 7.96078 54.2033 8.26237C53.7271 8.54808 53.3461 8.95285 53.0604 9.47666C52.7906 10.0005 52.6557 10.6036 52.6557 11.2862C52.6557 11.9687 52.7906 12.5719 53.0604 13.0957C53.3461 13.6195 53.7271 14.0322 54.2033 14.3338C54.6953 14.6195 55.2588 14.7624 55.8938 14.7624ZM58.9652 17.0005V13.929L59.4176 11.1433L58.9652 8.38142V5.57189H61.5842V17.0005H58.9652Z" fill="#B2E24B"/>
<path d="M68.3004 22.0005C67.094 22.0005 66.0385 21.7782 65.1337 21.3338C64.229 20.9052 63.4988 20.2941 62.9432 19.5005L64.6575 17.7862C65.1178 18.3576 65.6416 18.7862 66.229 19.0719C66.8163 19.3576 67.5226 19.5005 68.348 19.5005C69.3797 19.5005 70.1972 19.2306 70.8004 18.6909C71.4036 18.1671 71.7051 17.4449 71.7051 16.5243V13.7148L72.1575 11.1909L71.7051 8.64332V5.57189H74.3242V16.5243C74.3242 17.6195 74.0702 18.5719 73.5623 19.3814C73.0543 20.2068 72.348 20.8497 71.4432 21.31C70.5385 21.7703 69.4909 22.0005 68.3004 22.0005ZM68.1813 16.7624C67.1655 16.7624 66.2448 16.5163 65.4194 16.0243C64.6099 15.5163 63.967 14.8259 63.4909 13.9528C63.0305 13.0798 62.8004 12.1036 62.8004 11.0243C62.8004 9.94491 63.0305 8.97666 63.4909 8.11951C63.967 7.26237 64.6099 6.58777 65.4194 6.0957C66.2448 5.58777 67.1655 5.3338 68.1813 5.3338C69.0861 5.3338 69.8797 5.51634 70.5623 5.88142C71.2448 6.2465 71.7766 6.75443 72.1575 7.40523C72.5385 8.04015 72.729 8.78618 72.729 9.64332V12.4528C72.729 13.2941 72.5305 14.0401 72.1337 14.6909C71.7528 15.3417 71.221 15.8497 70.5385 16.2148C69.8559 16.5798 69.0702 16.7624 68.1813 16.7624ZM68.7051 14.2862C69.3401 14.2862 69.8956 14.1513 70.3718 13.8814C70.848 13.6116 71.2131 13.2386 71.467 12.7624C71.7369 12.2703 71.8718 11.6989 71.8718 11.0481C71.8718 10.3973 71.7369 9.8338 71.467 9.35761C71.2131 8.86555 70.848 8.48459 70.3718 8.21475C69.8956 7.94491 69.3401 7.80999 68.7051 7.80999C68.0702 7.80999 67.5067 7.94491 67.0147 8.21475C66.5385 8.48459 66.1655 8.86555 65.8956 9.35761C65.6258 9.8338 65.4909 10.3973 65.4909 11.0481C65.4909 11.683 65.6258 12.2465 65.8956 12.7386C66.1655 13.2306 66.5385 13.6116 67.0147 13.8814C67.5067 14.1513 68.0702 14.2862 68.7051 14.2862Z" fill="#B2E24B"/>
<path d="M81.5907 17.2386C80.4479 17.2386 79.4161 16.9846 78.4955 16.4767C77.5907 15.9528 76.8685 15.2386 76.3288 14.3338C75.805 13.429 75.5431 12.4132 75.5431 11.2862C75.5431 10.1592 75.805 9.15126 76.3288 8.26237C76.8526 7.35761 77.559 6.64332 78.4479 6.11951C79.3526 5.5957 80.3526 5.3338 81.4479 5.3338C82.5114 5.3338 83.4479 5.57983 84.2574 6.07189C85.0828 6.56396 85.7257 7.23856 86.186 8.0957C86.6622 8.95285 86.9003 9.92904 86.9003 11.0243C86.9003 11.2148 86.8844 11.4132 86.8526 11.6195C86.8368 11.81 86.805 12.0243 86.7574 12.2624H77.3765V10.1195H85.4003L84.4241 10.9767C84.3923 10.2782 84.2574 9.69094 84.0193 9.21475C83.7812 8.73856 83.4399 8.37348 82.9955 8.11951C82.5669 7.86554 82.0352 7.73856 81.4003 7.73856C80.7336 7.73856 80.1542 7.88142 79.6622 8.16713C79.1701 8.45285 78.7892 8.85761 78.5193 9.38142C78.2495 9.88935 78.1145 10.5005 78.1145 11.2148C78.1145 11.929 78.2574 12.556 78.5431 13.0957C78.8288 13.6354 79.2336 14.056 79.7574 14.3576C80.2812 14.6433 80.8844 14.7862 81.5669 14.7862C82.1542 14.7862 82.6939 14.683 83.186 14.4767C83.6939 14.2703 84.1225 13.9687 84.4717 13.5719L86.1384 15.2624C85.5828 15.9132 84.9082 16.4052 84.1145 16.7386C83.3209 17.0719 82.4796 17.2386 81.5907 17.2386Z" fill="#B2E24B"/>
</svg>
